<?xml version="1.0" standalone="no"?>
<!DOCTYPE svg PUBLIC "-//W3C//DTD SVG 20010904//EN"
 "http://www.w3.org/TR/2001/REC-SVG-20010904/DTD/svg10.dtd">
<svg version="1.0" xmlns="http://www.w3.org/2000/svg"
 width="1040.000000pt" height="1040.000000pt" viewBox="0 0 1040.000000 1040.000000"
 preserveAspectRatio="xMidYMid meet">
<metadata>
Created by potrace 1.14, written by Peter Selinger 2001-2017
</metadata>
<g transform="translate(0.000000,1040.000000) scale(0.100000,-0.100000)"
fill="#000000" stroke="none">
<path d="M1329 10373 c-3 -164 1 -4606 5 -4628 2 -16 7 -54 11 -84 4 -30 9
-63 11 -75 2 -12 7 -37 10 -56 17 -106 48 -256 53 -260 3 -3 6 -14 6 -25 0
-21 15 -79 47 -185 11 -36 21 -72 23 -81 4 -18 63 -193 78 -229 6 -14 11 -27
12 -30 26 -108 249 -565 362 -745 7 -11 20 -33 29 -50 23 -41 210 -321 224
-335 3 -3 25 -32 50 -65 24 -33 49 -65 55 -71 5 -6 17 -22 25 -34 8 -12 20
-28 25 -34 6 -6 30 -36 55 -66 25 -30 59 -71 76 -90 17 -19 55 -62 84 -95 80
-91 374 -381 470 -466 47 -41 87 -76 90 -79 3 -3 55 -46 115 -95 61 -49 112
-92 115 -95 3 -3 12 -9 22 -15 9 -5 58 -42 110 -81 51 -38 136 -99 188 -135
52 -35 97 -67 98 -71 2 -5 9 -8 16 -8 6 0 21 -7 31 -15 34 -27 114 -77 270
-169 83 -48 162 -97 177 -107 15 -11 29 -19 31 -19 2 0 136 -79 296 -175 161
-96 297 -175 302 -175 5 0 9 -4 9 -10 0 -5 5 -10 10 -10 10 0 190 -105 242
-141 17 -12 33 -16 45 -11 34 14 158 86 161 94 2 4 7 8 12 8 4 0 72 39 151 86
79 48 164 98 189 112 25 14 57 33 72 43 14 11 31 19 37 19 6 0 11 5 11 10 0 6
5 10 10 10 6 0 36 16 66 35 30 19 56 35 59 35 3 0 29 16 59 35 30 19 59 35 65
35 5 0 11 4 13 8 2 5 15 15 30 23 70 37 163 93 166 101 2 4 8 8 13 8 8 0 208
118 219 130 3 3 73 50 155 105 83 55 152 102 155 105 3 3 30 23 60 45 30 22
57 42 60 45 3 3 25 21 50 40 25 19 51 40 58 47 7 7 16 13 20 13 4 0 23 15 43
33 19 17 50 43 68 57 18 14 50 41 71 60 21 19 65 58 97 85 76 66 394 384 458
458 28 32 61 70 75 85 14 16 41 47 60 71 19 23 42 50 50 60 8 10 26 33 40 51
14 18 30 38 35 44 36 39 235 319 235 331 0 3 11 18 25 33 14 15 25 30 25 34 0
3 23 44 52 90 28 46 69 115 90 153 53 95 207 405 201 405 -2 0 3 12 11 28 16
29 87 200 90 217 1 6 4 15 8 20 15 26 121 372 132 435 2 14 5 25 6 25 2 0 10
34 14 60 2 11 8 38 14 60 10 38 15 63 28 148 3 21 7 44 8 50 3 11 5 24 23 122
4 22 8 1096 10 2388 l3 2347 -3870 0 -3870 0 -1 -27z"/>
<path d="M9070 3356 c0 -8 -3 -16 -7 -18 -5 -1 -21 -29 -38 -61 -16 -32 -38
-67 -47 -77 -10 -11 -18 -24 -18 -29 0 -5 -6 -16 -13 -23 -7 -7 -29 -38 -49
-68 -31 -49 -130 -184 -158 -218 -7 -7 -35 -41 -63 -75 -89 -106 -99 -118
-227 -246 -151 -152 -217 -211 -224 -203 -3 3 -6 1 -6 -5 0 -6 -30 -34 -67
-62 -38 -28 -72 -54 -78 -59 -98 -79 -379 -235 -505 -281 -19 -7 -44 -17 -55
-22 -25 -10 -143 -48 -170 -53 -11 -3 -52 -11 -91 -20 -39 -8 -101 -18 -137
-22 l-65 -7 1 -318 2 -319 -55 -17 c-30 -9 -59 -17 -65 -18 -5 -2 -34 -10 -64
-19 -30 -9 -57 -14 -59 -11 -3 3 -10 1 -16 -4 -10 -8 -278 -71 -361 -85 -49
-8 -88 -15 -115 -21 -13 -2 -42 -7 -65 -10 -22 -4 -52 -8 -66 -10 -14 -3 -43
-7 -65 -10 -21 -2 -55 -7 -74 -9 -36 -5 -92 -12 -170 -20 -42 -5 -88 -9 -250
-22 -36 -2 -141 -6 -235 -8 -93 -2 -174 -5 -180 -6 -5 -1 -12 -2 -15 -1 -3 1
-84 4 -180 6 -96 2 -206 6 -245 9 -38 3 -101 8 -140 11 -38 3 -86 7 -105 9
-19 2 -62 7 -95 11 -33 3 -71 8 -85 10 -23 5 -87 13 -155 20 -16 2 -30 4 -30
5 0 1 -11 3 -25 5 -14 2 -38 6 -55 9 -16 4 -46 9 -65 12 -19 3 -42 7 -50 10
-8 3 -28 8 -45 10 -23 3 -100 18 -145 29 -51 12 -68 16 -85 19 -18 4 -237 62
-260 70 -5 1 -26 6 -47 10 -26 6 -37 14 -40 29 -2 12 -3 158 -2 325 l1 302
-31 1 c-43 2 -91 7 -91 9 0 1 -11 3 -25 5 -29 4 -58 10 -120 26 -25 6 -53 12
-63 14 -22 5 -85 25 -112 36 -11 4 -60 24 -110 44 -89 37 -175 80 -270 136
-27 16 -60 35 -72 41 -13 6 -23 15 -23 20 0 4 -6 8 -12 8 -7 0 -24 9 -38 20
-14 11 -62 46 -106 79 -45 33 -96 74 -114 91 -18 16 -34 30 -36 30 -5 0 -56
48 -167 156 -56 56 -101 104 -202 218 -8 9 -74 90 -108 131 -58 71 -177 243
-177 255 0 5 -4 10 -8 10 -4 0 -26 30 -47 67 -22 37 -45 77 -52 88 -7 11 -17
30 -22 43 -20 42 -24 22 -16 -80 4 -57 8 -118 9 -135 0 -18 4 -33 7 -33 3 0 6
-6 6 -12 1 -22 13 -90 18 -98 2 -3 7 -21 10 -38 6 -36 54 -180 79 -237 41 -94
100 -210 108 -213 4 -2 8 -13 8 -24 0 -14 -5 -18 -17 -14 -10 3 -45 8 -78 11
-33 3 -82 8 -110 11 -27 2 -75 7 -107 9 l-56 5 14 -48 c14 -46 111 -252 124
-262 3 -3 19 -27 35 -55 33 -57 196 -275 249 -332 19 -21 49 -54 66 -73 117
-129 296 -300 461 -441 l54 -46 0 -273 0 -273 38 -28 c21 -16 52 -34 68 -41
16 -7 29 -16 29 -19 0 -3 24 -16 53 -30 28 -13 54 -27 57 -30 5 -6 80 -43 90
-44 3 -1 33 -15 67 -33 34 -18 69 -32 78 -32 8 0 15 -5 15 -11 0 -6 7 -9 15
-5 8 3 15 2 15 -2 0 -8 64 -36 85 -38 6 0 24 -6 40 -14 17 -7 39 -16 50 -21
28 -12 374 -120 400 -125 6 -1 30 -7 55 -14 25 -7 56 -14 70 -17 14 -2 50 -10
80 -18 46 -11 98 -21 155 -31 6 -1 12 -3 15 -4 3 -1 19 -4 35 -6 17 -3 65 -11
108 -19 44 -8 83 -12 88 -9 5 3 9 2 9 -3 0 -4 10 -8 23 -9 12 0 47 -4 77 -8
30 -5 64 -9 76 -10 11 -2 26 -6 32 -10 7 -4 12 -2 12 4 0 6 5 8 12 4 7 -4 24
-9 38 -10 26 -2 113 -11 202 -20 29 -3 82 -7 118 -9 36 -2 65 -4 65 -5 0 -6
350 -14 620 -14 412 0 672 11 930 41 22 2 60 6 85 7 25 2 45 4 45 6 0 1 16 3
35 5 19 1 71 8 114 14 44 7 91 14 105 16 14 2 41 6 59 9 17 3 47 8 65 11 17 3
43 8 57 10 14 2 70 14 125 26 55 11 109 22 120 24 11 2 47 11 80 20 33 9 69
18 80 21 11 2 52 13 90 24 39 12 80 23 93 26 12 2 48 14 80 25 31 11 89 32
127 46 39 13 77 27 85 30 8 4 17 7 20 8 3 1 21 9 40 17 19 9 38 14 41 12 4 -2
12 3 19 11 7 8 18 15 25 15 35 0 455 225 472 254 4 6 7 133 7 282 l1 272 30
23 c17 13 42 35 56 49 14 14 28 26 32 28 7 3 70 59 129 115 22 20 44 37 49 37
5 0 9 3 9 8 0 4 48 57 108 118 125 129 165 173 212 234 19 25 40 49 46 55 6 5
24 28 40 50 16 22 37 49 47 59 9 11 17 26 17 33 0 7 4 13 8 13 5 0 14 10 21
23 6 12 20 36 31 52 11 17 23 38 26 48 4 9 10 17 15 17 5 0 9 9 9 19 0 11 3
21 8 23 11 5 52 85 52 102 0 9 3 16 8 16 9 0 47 118 40 125 -3 3 -55 1 -114
-5 -60 -6 -127 -13 -149 -15 -22 -1 -44 -4 -50 -5 -5 -1 -20 -2 -33 -1 -20 1
-21 3 -10 24 7 12 16 24 19 27 10 8 92 184 92 198 0 6 4 12 9 12 4 0 8 6 8 14
0 8 5 27 12 43 6 15 12 30 13 33 2 11 27 86 32 100 3 8 7 24 8 35 1 11 7 36
13 55 11 32 17 66 28 155 8 70 15 215 10 215 -3 0 -6 -6 -6 -14z"/>
</g>
</svg>
